<?xml version="1.0" standalone="no"?><!DOCTYPE svg PUBLIC "-//W3C//DTD SVG 1.1//EN" "http://www.w3.org/Graphics/SVG/1.1/DTD/svg11.dtd"><svg t="1571925608265" class="icon" viewBox="0 0 1024 1024" version="1.1" xmlns="http://www.w3.org/2000/svg" p-id="1158" xmlns:xlink="http://www.w3.org/1999/xlink" width="200" height="200"><defs><style type="text/css"></style></defs><path d="M512 1024q218-5 362.5-149.5T1024 512q-5-218-149.5-362.5T512 0Q294 5 149.5 149.5T0 512q5 218 149.5 362.5T512 1024z m169-684q13-13 30-13t30 13q13 13 13 30t-12 30L484 659q-13 12-30.5 12T424 659L283 518q-13-13-13-30t13-30q13-13 30-13t30 13l111 110 227-228z" fill="#666666" p-id="1159"></path></svg>